<svg width="52" height="40" viewBox="0 0 52 40" fill="none" xmlns="http://www.w3.org/2000/svg">
<g clip-path="url(#clip0_8_78)">
<path d="M9.28626 39.9124V37.2577C9.28626 36.2423 8.67093 35.5773 7.61463 35.5773C7.08647 35.5773 6.51217 35.7526 6.11734 36.3299C5.80968 35.8454 5.3687 35.5773 4.70722 35.5773C4.26624 35.5773 3.82526 35.7113 3.47657 36.1959V35.6649H2.55359V39.9124H3.47657V37.567C3.47657 36.8144 3.87141 36.4588 4.48673 36.4588C5.10205 36.4588 5.40972 36.8557 5.40972 37.567V39.9124H6.3327V37.567C6.3327 36.8144 6.77368 36.4588 7.34286 36.4588C7.95818 36.4588 8.26584 36.8557 8.26584 37.567V39.9124H9.28626ZM22.9772 35.6649H21.4799V34.3814H20.5569V35.6649H19.7211V36.5051H20.5569V38.4536C20.5569 39.4278 20.9518 40 22.0081 40C22.4029 40 22.8439 39.866 23.1516 39.6907L22.8849 38.8917C22.6183 39.067 22.3106 39.1134 22.0901 39.1134C21.6491 39.1134 21.4748 38.8454 21.4748 38.4072V36.5051H22.9721V35.6649H22.9772ZM30.8123 35.5722C30.2842 35.5722 29.9304 35.8402 29.7099 36.1907V35.6598H28.7869V39.9072H29.7099V37.5155C29.7099 36.8093 30.0175 36.4072 30.5918 36.4072C30.7662 36.4072 30.9867 36.4536 31.1661 36.4948L31.4328 35.6082C31.2482 35.5722 30.9867 35.5722 30.8123 35.5722ZM18.9725 36.0155C18.5315 35.7062 17.9162 35.5722 17.2547 35.5722C16.1984 35.5722 15.4959 36.1031 15.4959 36.9433C15.4959 37.6495 16.0241 38.0515 16.947 38.1804L17.388 38.2268C17.87 38.3144 18.1367 38.4484 18.1367 38.6701C18.1367 38.9794 17.7829 39.201 17.1675 39.201C16.5522 39.201 16.0651 38.9794 15.7574 38.7577L15.3164 39.4639C15.7984 39.8196 16.4599 39.9948 17.1214 39.9948C18.352 39.9948 19.0596 39.4175 19.0596 38.6237C19.0596 37.8711 18.4853 37.4742 17.6085 37.3402L17.1675 37.2938C16.7727 37.2474 16.465 37.1598 16.465 36.8969C16.465 36.5876 16.7727 36.4124 17.2598 36.4124C17.788 36.4124 18.3161 36.634 18.5828 36.768L18.9725 36.0155ZM43.529 35.5722C43.0009 35.5722 42.6471 35.8402 42.4266 36.1907V35.6598H41.5036V39.9072H42.4266V37.5155C42.4266 36.8093 42.7342 36.4072 43.3085 36.4072C43.4829 36.4072 43.7034 36.4536 43.8828 36.4948L44.1495 35.6185C43.97 35.5722 43.7085 35.5722 43.529 35.5722ZM31.7353 37.7887C31.7353 39.0722 32.6173 40 33.9812 40C34.5966 40 35.0376 39.866 35.4785 39.5155L35.0376 38.7629C34.6837 39.0309 34.3351 39.1598 33.9351 39.1598C33.1865 39.1598 32.6583 38.6289 32.6583 37.7887C32.6583 36.9897 33.1865 36.4588 33.9351 36.4175C34.3299 36.4175 34.6837 36.5515 35.0376 36.8144L35.4785 36.0618C35.0376 35.7062 34.5966 35.5773 33.9812 35.5773C32.6173 35.5722 31.7353 36.5051 31.7353 37.7887ZM40.2729 37.7887V35.6649H39.3499V36.1959C39.0423 35.799 38.6013 35.5773 38.027 35.5773C36.8374 35.5773 35.9144 36.5051 35.9144 37.7887C35.9144 39.0722 36.8374 40 38.027 40C38.6423 40 39.0833 39.7783 39.3499 39.3814V39.9124H40.2729V37.7887ZM36.8835 37.7887C36.8835 37.0361 37.3655 36.4175 38.1603 36.4175C38.909 36.4175 39.4371 36.9948 39.4371 37.7887C39.4371 38.5412 38.909 39.1598 38.1603 39.1598C37.3707 39.1134 36.8835 38.5361 36.8835 37.7887ZM25.8385 35.5722C24.6078 35.5722 23.7259 36.4588 23.7259 37.7835C23.7259 39.1134 24.6078 39.9948 25.8846 39.9948C26.4999 39.9948 27.1153 39.8196 27.6024 39.4175L27.1614 38.7526C26.8076 39.0206 26.3666 39.1959 25.9308 39.1959C25.3565 39.1959 24.7873 38.9278 24.654 38.1804H27.7767C27.7767 38.0464 27.7767 37.9588 27.7767 37.8247C27.8178 36.4588 27.023 35.5722 25.8385 35.5722ZM25.8385 36.3711C26.4128 36.3711 26.8076 36.7268 26.8948 37.3866H24.695C24.7822 36.8144 25.177 36.3711 25.8385 36.3711ZM48.7695 37.7887V33.9845H47.8465V36.1959C47.5389 35.799 47.0979 35.5773 46.5236 35.5773C45.334 35.5773 44.411 36.5051 44.411 37.7887C44.411 39.0722 45.334 40 46.5236 40C47.1389 40 47.5799 39.7783 47.8465 39.3814V39.9124H48.7695V37.7887ZM45.3801 37.7887C45.3801 37.0361 45.8621 36.4175 46.6569 36.4175C47.4056 36.4175 47.9337 36.9948 47.9337 37.7887C47.9337 38.5412 47.4056 39.1598 46.6569 39.1598C45.8621 39.1134 45.3801 38.5361 45.3801 37.7887ZM14.4806 37.7887V35.6649H13.5576V36.1959C13.25 35.799 12.809 35.5773 12.2347 35.5773C11.0451 35.5773 10.1221 36.5051 10.1221 37.7887C10.1221 39.0722 11.0451 40 12.2347 40C12.85 40 13.291 39.7783 13.5576 39.3814V39.9124H14.4806V37.7887ZM11.0502 37.7887C11.0502 37.0361 11.5322 36.4175 12.327 36.4175C13.0756 36.4175 13.6038 36.9948 13.6038 37.7887C13.6038 38.5412 13.0756 39.1598 12.327 39.1598C11.5322 39.1134 11.0502 38.5361 11.0502 37.7887Z" fill="white"/>
<path d="M32.5301 3.40722H18.6648V28.4485H32.5301V3.40722Z" fill="#FF5A00"/>
<path d="M19.5878 15.9278C19.5878 10.8402 21.9671 6.32474 25.618 3.40722C22.9311 1.28351 19.5417 0 15.8446 0C7.08648 0 0 7.12371 0 15.9278C0 24.732 7.08648 31.8557 15.8446 31.8557C19.5417 31.8557 22.9311 30.5722 25.618 28.4485C21.9619 25.5722 19.5878 21.0155 19.5878 15.9278Z" fill="#EB001B"/>
<path d="M51.236 15.9278C51.236 24.732 44.1495 31.8557 35.3914 31.8557C31.6943 31.8557 28.3049 30.5722 25.618 28.4485C29.3151 25.5258 31.6482 21.0155 31.6482 15.9278C31.6482 10.8402 29.2689 6.32474 25.618 3.40722C28.2998 1.28351 31.6892 0 35.3862 0C44.1495 0 51.236 7.1701 51.236 15.9278Z" fill="#F79E1B"/>
</g>
<defs>
<clipPath id="clip0_8_78">
<rect width="51.236" height="40" fill="white"/>
</clipPath>
</defs>
</svg>
