<svg width="10" height="12" viewBox="0 0 10 12" fill="none" xmlns="http://www.w3.org/2000/svg">
<g clip-path="url(#clip0_6_29)">
<path d="M8.48315 0.934049C7.93884 0.302968 6.95491 0.0324097 5.69623 0.0324097H2.04309C1.78557 0.0324097 1.56674 0.222925 1.52642 0.481245L0.00533535 10.2944C-0.0249042 10.4879 0.122392 10.6632 0.31521 10.6632H2.5705L3.13692 7.00871L3.11936 7.12315C3.15968 6.86483 3.37689 6.67431 3.63408 6.67431H4.7058C6.81119 6.67431 8.45974 5.80442 8.94129 3.28804C8.9556 3.21362 8.96796 3.14118 8.97869 3.0704C8.91788 3.03765 8.91788 3.03765 8.97869 3.0704C9.12208 2.14031 8.97771 1.50725 8.48315 0.934049Z" fill="white"/>
<path d="M3.99988 2.73534C4.06004 2.70624 4.12702 2.69003 4.19725 2.69003H7.06123C7.40037 2.69003 7.71675 2.71252 8.00581 2.75982C8.08873 2.77338 8.16904 2.78893 8.24708 2.80679C8.32512 2.82432 8.40088 2.84416 8.47436 2.86599C8.51111 2.87691 8.5472 2.88815 8.58264 2.90006C8.72474 2.94835 8.85707 3.00458 8.97868 3.0704C9.12208 2.13998 8.97771 1.50725 8.48314 0.934049C7.93851 0.302968 6.95491 0.0324097 5.69622 0.0324097H2.04276C1.78556 0.0324097 1.56673 0.222925 1.52641 0.481245L0.00532985 10.2941C-0.0249097 10.4879 0.122386 10.6629 0.314879 10.6629H2.57049L3.74561 3.08264C3.76967 2.92718 3.86787 2.79984 3.99988 2.73534Z" fill="white"/>
<path d="M8.94129 3.28804C8.45973 5.8041 6.81119 6.67432 4.7058 6.67432H3.63375C3.37655 6.67432 3.15935 6.86483 3.11936 7.12315L2.41474 11.6671C2.3884 11.8364 2.51717 11.9899 2.6856 11.9899H4.58679C4.8118 11.9899 5.00331 11.8232 5.03843 11.5973L5.05696 11.4987L5.41529 9.18872L5.43837 9.06105C5.47349 8.83514 5.66501 8.66844 5.89002 8.66844H6.17453C8.01622 8.66844 9.45829 7.90737 9.87969 5.70619C10.0556 4.78636 9.96456 4.01835 9.49926 3.47889C9.35814 3.31549 9.18288 3.18055 8.97868 3.0704C8.96763 3.14152 8.95559 3.21362 8.94129 3.28804Z" fill="#2790C3"/>
<path d="M8.47469 2.86599C8.4012 2.84417 8.32544 2.82432 8.2474 2.80679C8.16936 2.78926 8.08873 2.77371 8.00614 2.76015C7.71675 2.71252 7.40069 2.69003 7.06123 2.69003H4.19758C4.12702 2.69003 4.06003 2.70624 4.0002 2.73568C3.86787 2.80017 3.76999 2.92718 3.74593 3.08297L3.13724 7.00871L3.11968 7.12315C3.15967 6.86483 3.37688 6.67431 3.63408 6.67431H4.70612C6.81151 6.67431 8.46006 5.80443 8.94161 3.28804C8.95592 3.21362 8.96795 3.14151 8.97901 3.0704C8.85707 3.00491 8.72506 2.94835 8.58296 2.90039C8.54752 2.88849 8.51143 2.87691 8.47469 2.86599Z" fill="white"/>
</g>
<defs>
<clipPath id="clip0_6_29">
<rect width="10" height="12" fill="white"/>
</clipPath>
</defs>
</svg>
